<?xml version="1.0" encoding="UTF-8" standalone="no"?>
<svg
   width="106mm"
   height="95mm"
   viewBox="0 0 106 95"
   version="1.1"
   preserveAspectRatio="xMidYMid meet"
   id="svg15"
   sodipodi:docname="box.svg"
   inkscape:version="1.2.2 (732a01da63, 2022-12-09)"
   xmlns:inkscape="http://www.inkscape.org/namespaces/inkscape"
   xmlns:sodipodi="http://sodipodi.sourceforge.net/DTD/sodipodi-0.dtd"
   xmlns="http://www.w3.org/2000/svg"
   xmlns:svg="http://www.w3.org/2000/svg">
  <defs
     id="defs19" />
  <sodipodi:namedview
     id="namedview17"
     pagecolor="#ffffff"
     bordercolor="#000000"
     borderopacity="0.25"
     inkscape:showpageshadow="2"
     inkscape:pageopacity="0.0"
     inkscape:pagecheckerboard="0"
     inkscape:deskcolor="#d1d1d1"
     inkscape:document-units="mm"
     showgrid="false"
     inkscape:zoom="2.6291228"
     inkscape:cx="205.01134"
     inkscape:cy="248.94235"
     inkscape:window-width="2560"
     inkscape:window-height="1521"
     inkscape:window-x="-9"
     inkscape:window-y="-9"
     inkscape:window-maximized="1"
     inkscape:current-layer="svgGroup" />
  <g
     id="svgGroup"
     stroke-linecap="round"
     fill-rule="evenodd"
     font-size="9pt"
     stroke="#000"
     stroke-width="0.25mm"
     fill="none"
     style="stroke:#000;stroke-width:0.25mm;fill:none">
    <path
       d="M 0 73 L 0 80.25 L 3 80.25 L 3 87.75 L 0 87.75 L 0 95 L 9.75 95 L 9.75 92 L 17.25 92 L 17.25 95 L 24.75 95 L 27 95 L 27 87.75 L 24 87.75 L 24 80.25 L 27 80.25 L 27 73 L 17.25 73 L 17.25 76 L 9.75 76 L 9.75 73 L 2.25 73 L 0 73 Z"
       id="front_outsideCutPath"
       stroke="#FF0000"
       stroke-width="0.1"
       style="stroke:#FF0000;stroke-width:0.1"
       vector-effect="non-scaling-stroke" />
    <path
       d="M 33 73 L 33 80.25 L 30 80.25 L 30 87.75 L 33 87.75 L 33 95 L 41.75 95 L 41.75 92 L 49.25 92 L 49.25 95 L 56.75 95 L 56.75 92 L 64.25 92 L 64.25 95 L 71.75 95 L 73 95 L 73 87.75 L 76 87.75 L 76 80.25 L 73 80.25 L 73 73 L 64.25 73 L 64.25 76 L 56.75 76 L 56.75 73 L 49.25 73 L 49.25 76 L 41.75 76 L 41.75 73 L 34.25 73 L 33 73 Z"
       id="left_outsideCutPath"
       stroke="#FF0000"
       stroke-width="0.1"
       style="stroke:#FF0000;stroke-width:0.1"
       vector-effect="non-scaling-stroke" />
    <path
       d="M 82 52 L 82 60.75 L 79 60.75 L 79 68.25 L 82 68.25 L 82 75.75 L 79 75.75 L 79 83.25 L 82 83.25 L 82 90.75 L 82 92 L 88.75 92 L 88.75 95 L 96.25 95 L 96.25 92 L 103 92 L 103 83.25 L 106 83.25 L 106 75.75 L 103 75.75 L 103 68.25 L 106 68.25 L 106 60.75 L 103 60.75 L 103 53.25 L 103 52 L 96.25 52 L 96.25 49 L 88.75 49 L 88.75 52 L 82 52 Z"
       id="top_outsideCutPath"
       stroke="#FF0000"
       stroke-width="0.1"
       style="stroke:#FF0000;stroke-width:0.1"
       vector-effect="non-scaling-stroke" />
    <path
       d="M 0 48 L 0 55.25 L 3 55.25 L 3 62.75 L 0 62.75 L 0 70 L 9.75 70 L 9.75 67 L 17.25 67 L 17.25 70 L 24.75 70 L 27 70 L 27 62.75 L 24 62.75 L 24 55.25 L 27 55.25 L 27 48 L 17.25 48 L 17.25 51 L 9.75 51 L 9.75 48 L 2.25 48 L 0 48 Z"
       id="back_outsideCutPath"
       stroke="#FF0000"
       stroke-width="0.1"
       style="stroke:#FF0000;stroke-width:0.1"
       vector-effect="non-scaling-stroke" />
    <path
       d="M 33 48 L 33 55.25 L 30 55.25 L 30 62.75 L 33 62.75 L 33 70 L 41.75 70 L 41.75 67 L 49.25 67 L 49.25 70 L 56.75 70 L 56.75 67 L 64.25 67 L 64.25 70 L 71.75 70 L 73 70 L 73 62.75 L 76 62.75 L 76 55.25 L 73 55.25 L 73 48 L 64.25 48 L 64.25 51 L 56.75 51 L 56.75 48 L 49.25 48 L 49.25 51 L 41.75 51 L 41.75 48 L 34.25 48 L 33 48 Z"
       id="right_outsideCutPath"
       stroke="#FF0000"
       stroke-width="0.1"
       style="stroke:#FF0000;stroke-width:0.1"
       vector-effect="non-scaling-stroke" />
    <path
       d="M 82 3 L 82 11.75 L 79 11.75 L 79 19.25 L 82 19.25 L 82 26.75 L 79 26.75 L 79 34.25 L 82 34.25 L 82 41.75 L 82 43 L 88.75 43 L 88.75 46 L 96.25 46 L 96.25 43 L 103 43 L 103 34.25 L 106 34.25 L 106 26.75 L 103 26.75 L 103 19.25 L 106 19.25 L 106 11.75 L 103 11.75 L 103 4.25 L 103 3 L 96.25 3 L 96.25 0 L 88.75 0 L 88.75 3 L 82 3 Z"
       id="bottom_outsideCutPath"
       stroke="#FF0000"
       stroke-width="0.1"
       style="stroke:#FF0000;stroke-width:0.1"
       vector-effect="non-scaling-stroke" />
    <g
       aria-label="Zhongxing Ren"
       id="text280"
       style="font-size:3.175px;fill:#2b0000;stroke-width:0.0661458mm"
       transform="translate(1.4088983,2.717161)">
      <path
         d="m 41.949105,57.161018 h -1.80144 v -0.285254 l 1.415417,-1.75028 h -1.362707 v -0.272852 h 1.714624 v 0.277503 l -1.42937,1.758032 h 1.463476 z"
         id="path410" />
      <path
         d="m 43.862167,57.161018 h -0.291456 v -0.985986 q 0,-0.119372 -0.01395,-0.223242 -0.01395,-0.10542 -0.05116,-0.164331 -0.03876,-0.06511 -0.111621,-0.09612 -0.07286,-0.03256 -0.189136,-0.03256 -0.119372,0 -0.249597,0.05891 -0.130224,0.05891 -0.249597,0.150378 v 1.292944 h -0.291455 v -2.412255 h 0.291455 v 0.872814 q 0.136426,-0.113171 0.282153,-0.176733 0.145728,-0.06356 0.299207,-0.06356 0.280603,0 0.427881,0.168982 0.147278,0.168982 0.147278,0.486792 z"
         id="path412" />
      <path
         d="m 45.899251,56.295955 q 0,0.42323 -0.217041,0.668176 -0.217041,0.244946 -0.58136,0.244946 -0.367419,0 -0.58446,-0.244946 -0.215491,-0.244946 -0.215491,-0.668176 0,-0.42323 0.215491,-0.668176 0.217041,-0.246497 0.58446,-0.246497 0.364319,0 0.58136,0.246497 0.217041,0.244946 0.217041,0.668176 z m -0.300757,0 q 0,-0.336414 -0.131775,-0.499194 -0.131774,-0.164331 -0.365869,-0.164331 -0.237195,0 -0.368969,0.164331 -0.130225,0.16278 -0.130225,0.499194 0,0.325561 0.131775,0.494543 0.131775,0.167432 0.367419,0.167432 0.232544,0 0.364319,-0.165881 0.133325,-0.167432 0.133325,-0.496094 z"
         id="path414" />
      <path
         d="m 47.79836,57.161018 h -0.291455 v -0.985986 q 0,-0.119372 -0.01395,-0.223242 -0.01395,-0.10542 -0.05116,-0.164331 -0.03876,-0.06511 -0.111621,-0.09612 -0.07286,-0.03256 -0.189136,-0.03256 -0.119373,0 -0.249597,0.05891 -0.130225,0.05891 -0.249597,0.150378 v 1.292944 h -0.291455 v -1.731677 h 0.291455 v 0.192236 q 0.136425,-0.113171 0.282153,-0.176733 0.145728,-0.06356 0.299207,-0.06356 0.280603,0 0.42788,0.168982 0.147278,0.168982 0.147278,0.486792 z"
         id="path416" />
      <path
         d="m 49.764131,56.964131 q 0,0.440283 -0.199988,0.646472 -0.199987,0.206189 -0.615466,0.206189 -0.137976,0 -0.269751,-0.02015 -0.130225,-0.0186 -0.257349,-0.05426 v -0.297656 h 0.0155 q 0.07131,0.02791 0.226343,0.06821 0.155029,0.04186 0.310059,0.04186 0.148828,0 0.246496,-0.03566 0.09767,-0.03566 0.151929,-0.09922 0.05426,-0.06046 0.07751,-0.145727 0.02325,-0.08527 0.02325,-0.190686 v -0.15813 q -0.131775,0.10542 -0.252698,0.15813 -0.119372,0.05116 -0.305407,0.05116 -0.310059,0 -0.492994,-0.223242 -0.181384,-0.224792 -0.181384,-0.632519 0,-0.223242 0.06201,-0.384473 0.06356,-0.162781 0.172082,-0.280603 0.100769,-0.110071 0.244947,-0.170532 0.144177,-0.06201 0.286804,-0.06201 0.150378,0 0.251147,0.03101 0.10232,0.02946 0.215491,0.09147 l 0.0186,-0.07441 h 0.272851 z M 49.472676,56.685078 V 55.74095 q -0.116272,-0.05271 -0.217041,-0.07441 -0.09922,-0.02325 -0.198437,-0.02325 -0.240296,0 -0.378272,0.16123 -0.137976,0.161231 -0.137976,0.468189 0,0.291455 0.102319,0.441833 0.10232,0.150378 0.339514,0.150378 0.127125,0 0.254249,-0.04806 0.128674,-0.04961 0.235644,-0.131775 z"
         id="path418" />
      <path
         d="m 51.836873,57.161018 h -0.367419 l -0.491443,-0.665075 -0.494544,0.665075 h -0.339514 l 0.675928,-0.863513 -0.669727,-0.868164 h 0.36742 l 0.488342,0.654224 0.489893,-0.654224 h 0.341064 l -0.680578,0.852661 z"
         id="path420" />
      <path
         d="m 52.529854,55.139436 h -0.328662 v -0.302307 h 0.328662 z m -0.0186,2.021582 h -0.291455 v -1.731677 h 0.291455 z"
         id="path422" />
      <path
         d="m 54.535933,57.161018 h -0.291455 v -0.985986 q 0,-0.119372 -0.01395,-0.223242 -0.01395,-0.10542 -0.05116,-0.164331 -0.03876,-0.06511 -0.111622,-0.09612 -0.07286,-0.03256 -0.189135,-0.03256 -0.119373,0 -0.249597,0.05891 -0.130225,0.05891 -0.249598,0.150378 v 1.292944 h -0.291455 v -1.731677 h 0.291455 v 0.192236 q 0.136426,-0.113171 0.282154,-0.176733 0.145727,-0.06356 0.299206,-0.06356 0.280603,0 0.427881,0.168982 0.147278,0.168982 0.147278,0.486792 z"
         id="path424" />
      <path
         d="m 56.501705,56.964131 q 0,0.440283 -0.199988,0.646472 -0.199988,0.206189 -0.615466,0.206189 -0.137976,0 -0.269751,-0.02015 -0.130225,-0.0186 -0.257349,-0.05426 v -0.297656 h 0.0155 q 0.07131,0.02791 0.226343,0.06821 0.155029,0.04186 0.310058,0.04186 0.148828,0 0.246497,-0.03566 0.09767,-0.03566 0.151929,-0.09922 0.05426,-0.06046 0.07751,-0.145727 0.02325,-0.08527 0.02325,-0.190686 v -0.15813 q -0.131775,0.10542 -0.252698,0.15813 -0.119373,0.05116 -0.305408,0.05116 -0.310058,0 -0.492993,-0.223242 -0.181384,-0.224792 -0.181384,-0.632519 0,-0.223242 0.06201,-0.384473 0.06356,-0.162781 0.172082,-0.280603 0.100769,-0.110071 0.244946,-0.170532 0.144178,-0.06201 0.286805,-0.06201 0.150378,0 0.251147,0.03101 0.102319,0.02946 0.215491,0.09147 l 0.0186,-0.07441 h 0.272852 z M 56.21025,56.685078 V 55.74095 q -0.116272,-0.05271 -0.217041,-0.07441 -0.09922,-0.02325 -0.198438,-0.02325 -0.240295,0 -0.378271,0.16123 -0.137976,0.161231 -0.137976,0.468189 0,0.291455 0.102319,0.441833 0.102319,0.150378 0.339514,0.150378 0.127124,0 0.254248,-0.04806 0.128674,-0.04961 0.235645,-0.131775 z"
         id="path426" />
      <path
         d="m 60.12474,57.161018 h -0.398425 l -0.772046,-0.917773 h -0.432532 v 0.917773 h -0.306958 v -2.308386 h 0.646472 q 0.20929,0 0.348816,0.0279 0.139526,0.02636 0.251147,0.09612 0.125574,0.07906 0.195337,0.199987 0.07131,0.119373 0.07131,0.303858 0,0.249597 -0.125574,0.418579 -0.125574,0.167432 -0.345715,0.252698 z m -0.717786,-1.658813 q 0,-0.09922 -0.03566,-0.175183 -0.03411,-0.07751 -0.114721,-0.130225 -0.06666,-0.04496 -0.15813,-0.06201 -0.09147,-0.0186 -0.215491,-0.0186 h -0.361218 v 0.871265 h 0.310058 q 0.145728,0 0.254249,-0.02481 0.10852,-0.02636 0.184484,-0.09612 0.06976,-0.06511 0.10232,-0.148828 0.03411,-0.08527 0.03411,-0.215491 z"
         id="path428" />
      <path
         d="m 61.771151,56.32541 h -1.275892 q 0,0.159681 0.04806,0.279053 0.04806,0.117822 0.131774,0.193787 0.08062,0.07441 0.190686,0.111621 0.111622,0.03721 0.244947,0.03721 0.176733,0 0.355017,-0.06976 0.179834,-0.07131 0.255798,-0.139527 h 0.0155 v 0.31781 q -0.147278,0.06201 -0.300757,0.10387 -0.153479,0.04186 -0.322461,0.04186 -0.430981,0 -0.672827,-0.232544 -0.241845,-0.234094 -0.241845,-0.663525 0,-0.424781 0.230993,-0.674378 0.232544,-0.249597 0.610816,-0.249597 0.350366,0 0.539502,0.204639 0.190686,0.204638 0.190686,0.58136 z m -0.283704,-0.223242 q -0.0016,-0.229443 -0.116272,-0.355017 -0.113171,-0.125574 -0.345715,-0.125574 -0.234095,0 -0.373621,0.137977 -0.137976,0.137976 -0.15658,0.342614 z"
         id="path430" />
      <path
         d="m 63.660958,57.161018 h -0.291455 v -0.985986 q 0,-0.119372 -0.01395,-0.223242 -0.01395,-0.10542 -0.05116,-0.164331 -0.03876,-0.06511 -0.111621,-0.09612 -0.07286,-0.03256 -0.189136,-0.03256 -0.119372,0 -0.249597,0.05891 -0.130224,0.05891 -0.249597,0.150378 v 1.292944 h -0.291455 v -1.731677 h 0.291455 v 0.192236 q 0.136426,-0.113171 0.282153,-0.176733 0.145728,-0.06356 0.299207,-0.06356 0.280603,0 0.427881,0.168982 0.147278,0.168982 0.147278,0.486792 z"
         id="path432" />
    </g>
    <g
       aria-label="Anders Damkjer"
       id="text284"
       style="font-size:3.175px;fill:#2b0000;stroke-width:0.0661458mm"
       transform="translate(-0.70444915,4.2266949)">
      <path
         d="m 42.283705,81.112289 h -0.327112 l -0.226342,-0.643371 h -0.998389 l -0.226343,0.643371 H 40.19391 l 0.840259,-2.308386 h 0.409277 z m -0.648022,-0.906921 -0.404627,-1.133264 -0.406177,1.133264 z"
         id="path435" />
      <path
         d="m 44.058791,81.112289 h -0.291456 v -0.985986 q 0,-0.119372 -0.01395,-0.223242 -0.01395,-0.10542 -0.05116,-0.164331 -0.03876,-0.06511 -0.111621,-0.09612 -0.07286,-0.03256 -0.189136,-0.03256 -0.119372,0 -0.249597,0.05891 -0.130224,0.05891 -0.249597,0.150378 v 1.292944 h -0.291455 v -1.731677 h 0.291455 v 0.192237 q 0.136426,-0.113172 0.282153,-0.176734 0.145728,-0.06356 0.299207,-0.06356 0.280603,0 0.427881,0.168982 0.147278,0.168982 0.147278,0.486792 z"
         id="path437" />
      <path
         d="m 46.024562,81.112289 h -0.291455 v -0.181384 q -0.125574,0.108521 -0.262,0.168982 -0.136425,0.06046 -0.296106,0.06046 -0.310058,0 -0.492993,-0.238746 -0.181384,-0.238745 -0.181384,-0.661975 0,-0.220141 0.06201,-0.392224 0.06356,-0.172082 0.170532,-0.293005 0.10542,-0.117822 0.244946,-0.179834 0.141077,-0.06201 0.291455,-0.06201 0.136426,0 0.241846,0.02946 0.10542,0.02791 0.221692,0.08837 v -0.750341 h 0.291455 z m -0.291455,-0.42633 v -0.993738 q -0.117822,-0.05271 -0.21084,-0.07286 -0.09302,-0.02015 -0.203088,-0.02015 -0.244947,0 -0.381372,0.170532 -0.136426,0.170532 -0.136426,0.483691 0,0.308508 0.10542,0.469739 0.10542,0.15968 0.337964,0.15968 0.124023,0 0.251147,-0.05426 0.127124,-0.05581 0.237195,-0.142627 z"
         id="path439" />
      <path
         d="m 48.047694,80.276682 h -1.275891 q 0,0.15968 0.04806,0.279052 0.04806,0.117823 0.131775,0.193787 0.08062,0.07441 0.190686,0.111621 0.111621,0.03721 0.244946,0.03721 0.176734,0 0.355017,-0.06976 0.179834,-0.07131 0.255799,-0.139527 h 0.0155 v 0.317811 q -0.147278,0.06201 -0.300757,0.103869 -0.153479,0.04186 -0.322461,0.04186 -0.430981,0 -0.672827,-0.232544 -0.241846,-0.234094 -0.241846,-0.663525 0,-0.424781 0.230994,-0.674378 0.232544,-0.249597 0.610815,-0.249597 0.350366,0 0.539502,0.204639 0.190686,0.204638 0.190686,0.58136 z m -0.283703,-0.223243 q -0.0016,-0.229443 -0.116272,-0.355017 -0.113172,-0.125573 -0.345716,-0.125573 -0.234094,0 -0.37362,0.137976 -0.137976,0.137976 -0.15658,0.342614 z"
         id="path441" />
      <path
         d="m 49.570082,79.698422 h -0.0155 q -0.06511,-0.0155 -0.127124,-0.0217 -0.06046,-0.0078 -0.144177,-0.0078 -0.134876,0 -0.26045,0.06046 -0.125573,0.05891 -0.241845,0.153479 v 1.229382 h -0.291455 v -1.731677 h 0.291455 v 0.255799 q 0.173633,-0.139527 0.305407,-0.196888 0.133326,-0.05891 0.271302,-0.05891 0.07596,0 0.110071,0.0047 0.03411,0.0031 0.102319,0.01395 z"
         id="path443" />
      <path
         d="m 51.081618,80.613095 q 0,0.237195 -0.196887,0.389124 -0.195337,0.151928 -0.534851,0.151928 -0.192237,0 -0.353467,-0.04496 -0.15968,-0.04651 -0.268201,-0.100769 v -0.327112 h 0.0155 q 0.137976,0.10387 0.306958,0.165881 0.168982,0.06046 0.324012,0.06046 0.192236,0 0.300756,-0.06201 0.108521,-0.06201 0.108521,-0.195337 0,-0.102319 -0.05891,-0.155029 -0.05891,-0.05271 -0.226343,-0.08992 -0.06201,-0.01395 -0.162781,-0.03256 -0.09922,-0.0186 -0.181384,-0.04031 -0.227893,-0.06046 -0.324011,-0.176733 -0.09457,-0.117823 -0.09457,-0.288355 0,-0.10697 0.04341,-0.201538 0.04496,-0.09457 0.134876,-0.168982 0.08682,-0.07286 0.220141,-0.114721 0.134876,-0.04341 0.300757,-0.04341 0.155029,0 0.313159,0.03876 0.15968,0.03721 0.2651,0.09147 v 0.311609 h -0.0155 q -0.111621,-0.08217 -0.271301,-0.137976 -0.15968,-0.05736 -0.313159,-0.05736 -0.15968,0 -0.269751,0.06201 -0.110071,0.06046 -0.110071,0.181384 0,0.10697 0.06666,0.16123 0.06511,0.05426 0.21084,0.08837 0.08061,0.0186 0.179833,0.03721 0.10077,0.0186 0.167432,0.03411 0.203088,0.04651 0.313159,0.15968 0.110071,0.114721 0.110071,0.303857 z"
         id="path445" />
      <path
         d="m 54.588381,79.960422 q 0,0.314709 -0.137976,0.570508 -0.136426,0.255798 -0.364319,0.396875 -0.15813,0.09767 -0.353467,0.141076 -0.193787,0.04341 -0.511597,0.04341 h -0.58291 v -2.308386 h 0.576709 q 0.337964,0 0.536401,0.04961 0.199988,0.04806 0.337964,0.133325 0.235645,0.147278 0.36742,0.392224 0.131775,0.244946 0.131775,0.58136 z m -0.320911,-0.0047 q 0,-0.271301 -0.09457,-0.457337 Q 54.07833,79.31235 53.890747,79.20538 53.754321,79.12787 53.600842,79.09841 53.447363,79.0674 53.233423,79.0674 H 52.94507 v 1.781287 h 0.288355 q 0.221691,0 0.386022,-0.03256 0.165882,-0.03256 0.303858,-0.120922 0.172082,-0.110071 0.257349,-0.289905 0.08682,-0.179834 0.08682,-0.449585 z"
         id="path447" />
      <path
         d="m 56.406873,81.112289 h -0.289904 v -0.184484 q -0.03876,0.02635 -0.10542,0.07441 -0.06511,0.04651 -0.127124,0.07441 -0.07286,0.03566 -0.167432,0.05891 -0.09457,0.02481 -0.221692,0.02481 -0.234094,0 -0.396875,-0.15503 -0.162781,-0.155029 -0.162781,-0.395324 0,-0.196888 0.08372,-0.317811 0.08527,-0.122473 0.241846,-0.192236 0.15813,-0.06976 0.379822,-0.09457 0.221692,-0.0248 0.47594,-0.03721 v -0.04496 q 0,-0.09922 -0.03566,-0.164331 -0.03411,-0.06511 -0.09922,-0.10232 -0.06201,-0.03566 -0.148828,-0.04806 -0.08682,-0.0124 -0.181384,-0.0124 -0.114722,0 -0.255799,0.03101 -0.141076,0.02945 -0.291455,0.08682 h -0.0155 v -0.296106 q 0.08527,-0.02325 0.246497,-0.05116 0.161231,-0.02791 0.31781,-0.02791 0.182935,0 0.31781,0.03101 0.136426,0.02946 0.235645,0.102319 0.09767,0.07131 0.148828,0.184485 0.05116,0.113172 0.05116,0.280603 z m -0.289904,-0.42633 v -0.482141 q -0.133325,0.0078 -0.31471,0.02325 -0.179834,0.0155 -0.285254,0.04496 -0.125573,0.03566 -0.203088,0.111621 -0.07751,0.07441 -0.07751,0.206189 0,0.148828 0.08992,0.224792 0.08992,0.07441 0.274402,0.07441 0.153479,0 0.280603,-0.05891 0.127124,-0.06046 0.235645,-0.144177 z"
         id="path449" />
      <path
         d="m 59.495058,81.112289 h -0.291455 v -0.985986 q 0,-0.111621 -0.01085,-0.215491 -0.0093,-0.103869 -0.04186,-0.165881 -0.03566,-0.06666 -0.102319,-0.100769 -0.06666,-0.03411 -0.192237,-0.03411 -0.122473,0 -0.244946,0.06201 -0.122473,0.06046 -0.244946,0.15503 0.0047,0.03566 0.0078,0.08372 0.0031,0.04651 0.0031,0.09302 v 1.108459 H 58.08589 v -0.985986 q 0,-0.114722 -0.01085,-0.217041 -0.0093,-0.10387 -0.04186,-0.165881 -0.03566,-0.06666 -0.10232,-0.09922 -0.06666,-0.03411 -0.192236,-0.03411 -0.119372,0 -0.240295,0.05891 -0.119373,0.05891 -0.238745,0.150378 v 1.292944 h -0.291455 v -1.731677 h 0.291455 v 0.192237 q 0.136425,-0.113172 0.271301,-0.176734 0.136426,-0.06356 0.289905,-0.06356 0.176733,0 0.299206,0.07441 0.124024,0.07441 0.184485,0.206189 0.176733,-0.148828 0.322461,-0.21394 0.145728,-0.06666 0.311609,-0.06666 0.285254,0 0.420129,0.173633 0.136426,0.172082 0.136426,0.482141 z"
         id="path451" />
      <path
         d="M 61.62826,81.112289 H 61.243787 L 60.549256,80.354196 60.36012,80.53403 v 0.578259 h -0.291455 v -2.412255 h 0.291455 v 1.547192 l 0.841809,-0.866614 h 0.36742 l -0.804602,0.799951 z"
         id="path453" />
      <path
         d="M 62.474721,79.090707 H 62.146059 V 78.7884 h 0.328662 z m -0.0186,2.06344 q 0,0.303858 -0.155029,0.458887 -0.155029,0.155029 -0.415479,0.155029 -0.06201,0 -0.164331,-0.0124 -0.100769,-0.0124 -0.168982,-0.03101 v -0.277502 h 0.0155 q 0.04341,0.01705 0.116272,0.03876 0.07441,0.0217 0.144178,0.0217 0.111621,0 0.179834,-0.03101 0.06821,-0.03101 0.102319,-0.09302 0.03411,-0.06201 0.04341,-0.150379 0.01085,-0.08682 0.01085,-0.21239 v -1.395264 h -0.361218 v -0.244946 h 0.652673 z"
         id="path455" />
      <path
         d="m 64.477699,80.276682 h -1.275891 q 0,0.15968 0.04806,0.279052 0.04806,0.117823 0.131775,0.193787 0.08062,0.07441 0.190686,0.111621 0.111621,0.03721 0.244946,0.03721 0.176734,0 0.355018,-0.06976 0.179834,-0.07131 0.255798,-0.139527 h 0.0155 v 0.317811 q -0.147278,0.06201 -0.300757,0.103869 -0.153479,0.04186 -0.322461,0.04186 -0.430981,0 -0.672827,-0.232544 -0.241846,-0.234094 -0.241846,-0.663525 0,-0.424781 0.230994,-0.674378 0.232544,-0.249597 0.610815,-0.249597 0.350366,0 0.539502,0.204639 0.190686,0.204638 0.190686,0.58136 z m -0.283703,-0.223243 q -0.0016,-0.229443 -0.116272,-0.355017 -0.113172,-0.125573 -0.345716,-0.125573 -0.234094,0 -0.37362,0.137976 -0.137976,0.137976 -0.15658,0.342614 z"
         id="path457" />
      <path
         d="m 66.000087,79.698422 h -0.0155 q -0.06511,-0.0155 -0.127124,-0.0217 -0.06046,-0.0078 -0.144177,-0.0078 -0.134876,0 -0.260449,0.06046 -0.125574,0.05891 -0.241846,0.153479 v 1.229382 h -0.291455 v -1.731677 h 0.291455 v 0.255799 q 0.173633,-0.139527 0.305408,-0.196888 0.133325,-0.05891 0.271301,-0.05891 0.07596,0 0.110071,0.0047 0.03411,0.0031 0.102319,0.01395 z"
         id="path459" />
    </g>
    <g
       aria-label="Antonia Schlieder"
       id="text288"
       style="font-size:3.175px;fill:#2b0000;stroke-width:0.0661458mm"
       transform="rotate(-89.989013,93.326983,29.663323)">
      <path
         d="m 86.965903,29.888769 h -0.327112 l -0.226343,-0.643371 h -0.998389 l -0.226342,0.643371 h -0.311609 l 0.840259,-2.308386 h 0.409277 z m -0.648023,-0.906921 -0.404626,-1.133264 -0.406177,1.133264 z"
         id="path377" />
      <path
         d="m 88.740988,29.888769 h -0.291455 v -0.985986 q 0,-0.119373 -0.01395,-0.223242 -0.01395,-0.10542 -0.05116,-0.164331 -0.03876,-0.06511 -0.111621,-0.09612 -0.07286,-0.03256 -0.189136,-0.03256 -0.119373,0 -0.249597,0.05891 -0.130225,0.05891 -0.249597,0.150379 v 1.292944 h -0.291455 v -1.731677 h 0.291455 v 0.192236 q 0.136425,-0.113171 0.282153,-0.176733 0.145727,-0.06356 0.299206,-0.06356 0.280603,0 0.427881,0.168982 0.147278,0.168982 0.147278,0.486792 z"
         id="path379" />
      <path
         d="m 90.201364,29.873266 q -0.08217,0.0217 -0.179834,0.03566 -0.09612,0.01395 -0.172082,0.01395 -0.265101,0 -0.403077,-0.142627 -0.137976,-0.142627 -0.137976,-0.457337 v -0.920874 h -0.196887 v -0.244946 h 0.196887 v -0.497644 h 0.291455 v 0.497644 h 0.601514 v 0.244946 H 89.59985 v 0.789099 q 0,0.136426 0.0062,0.213941 0.0062,0.07596 0.04341,0.142627 0.03411,0.06201 0.09302,0.09147 0.06046,0.02791 0.182935,0.02791 0.07131,0 0.148828,-0.02015 0.07751,-0.0217 0.111621,-0.03566 h 0.0155 z"
         id="path381" />
      <path
         d="m 92.029159,29.023706 q 0,0.42323 -0.217041,0.668176 -0.217041,0.244946 -0.58136,0.244946 -0.367419,0 -0.58446,-0.244946 -0.215491,-0.244946 -0.215491,-0.668176 0,-0.42323 0.215491,-0.668177 0.217041,-0.246496 0.58446,-0.246496 0.364319,0 0.58136,0.246496 0.217041,0.244947 0.217041,0.668177 z m -0.300757,0 q 0,-0.336414 -0.131774,-0.499195 -0.131775,-0.164331 -0.36587,-0.164331 -0.237194,0 -0.368969,0.164331 -0.130225,0.162781 -0.130225,0.499195 0,0.325561 0.131775,0.494543 0.131775,0.167432 0.367419,0.167432 0.232544,0 0.364319,-0.165882 0.133325,-0.167431 0.133325,-0.496093 z"
         id="path383" />
      <path
         d="m 93.928268,29.888769 h -0.291455 v -0.985986 q 0,-0.119373 -0.01395,-0.223242 -0.01395,-0.10542 -0.05116,-0.164331 -0.03876,-0.06511 -0.111621,-0.09612 -0.07286,-0.03256 -0.189136,-0.03256 -0.119372,0 -0.249597,0.05891 -0.130225,0.05891 -0.249597,0.150379 v 1.292944 h -0.291455 v -1.731677 h 0.291455 v 0.192236 q 0.136426,-0.113171 0.282153,-0.176733 0.145728,-0.06356 0.299207,-0.06356 0.280603,0 0.42788,0.168982 0.147278,0.168982 0.147278,0.486792 z"
         id="path385" />
      <path
         d="M 94.802633,27.867187 H 94.473971 V 27.56488 h 0.328662 z m -0.0186,2.021582 h -0.291455 v -1.731677 h 0.291455 z"
         id="path387" />
      <path
         d="m 96.706393,29.888769 h -0.289905 v -0.184485 q -0.03876,0.02635 -0.10542,0.07441 -0.06511,0.04651 -0.127124,0.07441 -0.07286,0.03566 -0.167431,0.05891 -0.09457,0.0248 -0.221692,0.0248 -0.234094,0 -0.396875,-0.155029 -0.162781,-0.155029 -0.162781,-0.395325 0,-0.196887 0.08372,-0.31781 0.08527,-0.122473 0.241846,-0.192236 0.158129,-0.06976 0.379821,-0.09457 0.221692,-0.02481 0.47594,-0.03721 v -0.04496 q 0,-0.09922 -0.03566,-0.164331 -0.03411,-0.06511 -0.09922,-0.102319 -0.06201,-0.03566 -0.148828,-0.04806 -0.08682,-0.0124 -0.181385,-0.0124 -0.114721,0 -0.255798,0.03101 -0.141077,0.02945 -0.291455,0.08682 h -0.0155 v -0.296106 q 0.08527,-0.02325 0.246497,-0.05116 0.16123,-0.02791 0.31781,-0.02791 0.182934,0 0.31781,0.03101 0.136425,0.02946 0.235644,0.102319 0.09767,0.07131 0.148828,0.184485 0.05116,0.113171 0.05116,0.280603 z m -0.289905,-0.42633 v -0.482142 q -0.133325,0.0078 -0.314709,0.02325 -0.179834,0.0155 -0.285254,0.04496 -0.125574,0.03566 -0.203088,0.111621 -0.07752,0.07442 -0.07752,0.206189 0,0.148829 0.08992,0.224793 0.08992,0.07441 0.274402,0.07441 0.153479,0 0.280603,-0.05891 0.127124,-0.06046 0.235644,-0.144177 z"
         id="path389" />
      <path
         d="m 100.08448,29.229895 q 0,0.134875 -0.0636,0.26665 -0.06201,0.131775 -0.175184,0.223242 -0.124023,0.09922 -0.289904,0.15503 -0.164332,0.05581 -0.396875,0.05581 -0.249598,0 -0.449585,-0.04651 -0.198438,-0.04651 -0.404627,-0.137976 V 29.36167 h 0.0217 q 0.175183,0.145727 0.404627,0.224792 0.229443,0.07906 0.430981,0.07906 0.285254,0 0.443384,-0.10697 0.15968,-0.10697 0.15968,-0.285254 0,-0.153479 -0.07596,-0.226343 -0.07441,-0.07286 -0.227893,-0.113171 -0.116272,-0.03101 -0.252698,-0.05116 -0.134876,-0.02015 -0.286804,-0.05116 -0.306958,-0.06511 -0.455786,-0.221692 -0.147278,-0.158129 -0.147278,-0.410827 0,-0.289905 0.244946,-0.47439 0.244946,-0.186035 0.621667,-0.186035 0.243396,0 0.446485,0.04651 0.203088,0.04651 0.359668,0.114722 v 0.362768 h -0.0217 q -0.131775,-0.111621 -0.347266,-0.184485 -0.21394,-0.07441 -0.438733,-0.07441 -0.246496,0 -0.396875,0.102319 -0.148828,0.10232 -0.148828,0.26355 0,0.144178 0.07441,0.226343 0.07441,0.08217 0.262,0.125574 0.09922,0.0217 0.282153,0.05271 0.182935,0.03101 0.310059,0.06356 0.257348,0.06821 0.387573,0.206189 0.130223,0.137976 0.130223,0.386023 z"
         id="path391" />
      <path
         d="m 101.83476,29.780249 q -0.14573,0.06976 -0.2775,0.10852 -0.13022,0.03876 -0.2775,0.03876 -0.18759,0 -0.34417,-0.05426 -0.15658,-0.05581 -0.2682,-0.167431 -0.11317,-0.111622 -0.17518,-0.282154 -0.062,-0.170532 -0.062,-0.398425 0,-0.42478 0.23254,-0.666626 0.23409,-0.241846 0.61702,-0.241846 0.14883,0 0.29145,0.04186 0.14418,0.04186 0.26355,0.10232 v 0.324011 h -0.0155 q -0.13333,-0.10387 -0.27595,-0.15968 -0.14108,-0.05581 -0.27596,-0.05581 -0.24804,0 -0.39222,0.167432 -0.14263,0.165881 -0.14263,0.488342 0,0.313159 0.13953,0.482141 0.14108,0.167432 0.39532,0.167432 0.0884,0 0.17984,-0.02325 0.0915,-0.02325 0.16433,-0.06046 0.0636,-0.03256 0.11937,-0.06821 0.0558,-0.03721 0.0884,-0.06356 h 0.0155 z"
         id="path393" />
      <path
         d="m 103.65636,29.888769 h -0.29146 v -0.985986 q 0,-0.119373 -0.014,-0.223242 -0.0139,-0.10542 -0.0512,-0.164331 -0.0388,-0.06511 -0.11162,-0.09612 -0.0729,-0.03256 -0.18914,-0.03256 -0.11937,0 -0.24959,0.05891 -0.13023,0.05891 -0.2496,0.150379 v 1.292944 h -0.29146 v -2.412256 h 0.29146 v 0.872815 q 0.13642,-0.113171 0.28215,-0.176733 0.14573,-0.06356 0.29921,-0.06356 0.2806,0 0.42788,0.168982 0.14728,0.168982 0.14728,0.486792 z"
         id="path395" />
      <path
         d="m 104.51212,29.888769 h -0.29146 v -2.412256 h 0.29146 z"
         id="path397" />
      <path
         d="m 105.40199,27.867187 h -0.32867 V 27.56488 h 0.32867 z m -0.0186,2.021582 h -0.29145 v -1.731677 h 0.29145 z"
         id="path399" />
      <path
         d="m 107.40962,29.053161 h -1.27589 q 0,0.15968 0.0481,0.279053 0.0481,0.117822 0.13178,0.193787 0.0806,0.07441 0.19069,0.111621 0.11162,0.03721 0.24494,0.03721 0.17674,0 0.35502,-0.06976 0.17983,-0.07131 0.2558,-0.139527 h 0.0155 v 0.31781 q -0.14728,0.06201 -0.30076,0.10387 -0.15348,0.04186 -0.32246,0.04186 -0.43098,0 -0.67282,-0.232544 -0.24185,-0.234094 -0.24185,-0.663526 0,-0.42478 0.23099,-0.674377 0.23255,-0.249597 0.61082,-0.249597 0.35036,0 0.5395,0.204639 0.19069,0.204638 0.19069,0.581359 z m -0.28371,-0.223242 q -0.002,-0.229443 -0.11627,-0.355017 -0.11317,-0.125574 -0.34571,-0.125574 -0.2341,0 -0.37363,0.137976 -0.13797,0.137976 -0.15657,0.342615 z"
         id="path401" />
      <path
         d="m 109.25602,29.888769 h -0.29146 v -0.181384 q -0.12557,0.10852 -0.262,0.168982 -0.13642,0.06046 -0.29611,0.06046 -0.31005,0 -0.49299,-0.238745 -0.18138,-0.238745 -0.18138,-0.661975 0,-0.220142 0.062,-0.392224 0.0636,-0.172083 0.17053,-0.293005 0.10542,-0.117823 0.24495,-0.179834 0.14107,-0.06201 0.29145,-0.06201 0.13643,0 0.24185,0.02945 0.10542,0.02791 0.22169,0.08837 v -0.750342 h 0.29146 z m -0.29146,-0.42633 v -0.993738 q -0.11782,-0.05271 -0.21084,-0.07286 -0.093,-0.02015 -0.20309,-0.02015 -0.24494,0 -0.38137,0.170532 -0.13643,0.170533 -0.13643,0.483692 0,0.308508 0.10542,0.469739 0.10542,0.15968 0.33797,0.15968 0.12402,0 0.25115,-0.05426 0.12712,-0.05581 0.23719,-0.142627 z"
         id="path403" />
      <path
         d="m 111.27915,29.053161 h -1.27589 q 0,0.15968 0.0481,0.279053 0.0481,0.117822 0.13178,0.193787 0.0806,0.07441 0.19069,0.111621 0.11162,0.03721 0.24494,0.03721 0.17673,0 0.35502,-0.06976 0.17983,-0.07131 0.2558,-0.139527 h 0.0155 v 0.31781 q -0.14728,0.06201 -0.30076,0.10387 -0.15348,0.04186 -0.32246,0.04186 -0.43098,0 -0.67283,-0.232544 -0.24184,-0.234094 -0.24184,-0.663526 0,-0.42478 0.23099,-0.674377 0.23255,-0.249597 0.61082,-0.249597 0.35036,0 0.5395,0.204639 0.19069,0.204638 0.19069,0.581359 z m -0.28371,-0.223242 q -0.002,-0.229443 -0.11627,-0.355017 -0.11317,-0.125574 -0.34571,-0.125574 -0.2341,0 -0.37363,0.137976 -0.13797,0.137976 -0.15657,0.342615 z"
         id="path405" />
      <path
         d="m 112.80153,28.474902 h -0.0155 q -0.0651,-0.0155 -0.12712,-0.0217 -0.0605,-0.0078 -0.14418,-0.0078 -0.13488,0 -0.26045,0.06046 -0.12557,0.05891 -0.24185,0.153479 v 1.229382 h -0.29145 v -1.731677 h 0.29145 v 0.255798 q 0.17364,-0.139526 0.30541,-0.196887 0.13333,-0.05891 0.2713,-0.05891 0.076,0 0.11007,0.0047 0.0341,0.0031 0.10232,0.01395 z"
         id="path407" />
    </g>
    <g
       aria-label="Athanasios Soulis"
       id="text292"
       style="font-size:3.175px;fill:#2b0000;stroke-width:0.0661458mm"
       transform="rotate(-91.749176,93.184545,79.131919)">
      <path
         d="M 87.167174,80.005295 H 86.840062 L 86.613719,79.361923 H 85.61533 l -0.226342,0.643372 h -0.311609 l 0.840259,-2.308386 h 0.409277 z m -0.648023,-0.906922 -0.404626,-1.133264 -0.406177,1.133264 z"
         id="path344" />
      <path
         d="m 88.36245,79.989792 q -0.08217,0.0217 -0.179834,0.03566 -0.09612,0.01395 -0.172083,0.01395 -0.2651,0 -0.403076,-0.142627 -0.137976,-0.142627 -0.137976,-0.457336 v -0.920874 h -0.196887 v -0.244946 h 0.196887 v -0.497644 h 0.291455 v 0.497644 h 0.601514 v 0.244946 h -0.601514 v 0.789099 q 0,0.136426 0.0062,0.21394 0.0062,0.07596 0.04341,0.142627 0.03411,0.06201 0.09302,0.09147 0.06046,0.02791 0.182934,0.02791 0.07131,0 0.148829,-0.02015 0.07751,-0.0217 0.111621,-0.03566 h 0.0155 z"
         id="path346" />
      <path
         d="m 90.16234,80.005295 h -0.291456 v -0.985987 q 0,-0.119372 -0.01395,-0.223242 -0.01395,-0.10542 -0.05116,-0.164331 -0.03876,-0.06511 -0.111621,-0.09612 -0.07286,-0.03256 -0.189136,-0.03256 -0.119372,0 -0.249597,0.05891 -0.130224,0.05891 -0.249597,0.150378 v 1.292945 h -0.291455 v -2.412256 h 0.291455 v 0.872815 q 0.136426,-0.113171 0.282153,-0.176733 0.145728,-0.06356 0.299207,-0.06356 0.280603,0 0.427881,0.168982 0.147278,0.168982 0.147278,0.486792 z"
         id="path348" />
      <path
         d="M 92.0692,80.005295 H 91.779295 V 79.82081 q -0.03876,0.02636 -0.10542,0.07441 -0.06511,0.04651 -0.127124,0.07441 -0.07286,0.03566 -0.167432,0.05891 -0.09457,0.02481 -0.221691,0.02481 -0.234095,0 -0.396875,-0.155029 -0.162781,-0.15503 -0.162781,-0.395325 0,-0.196887 0.08372,-0.31781 0.08527,-0.122473 0.241845,-0.192236 0.15813,-0.06976 0.379822,-0.09457 0.221692,-0.02481 0.47594,-0.03721 v -0.04496 q 0,-0.09922 -0.03566,-0.164331 -0.03411,-0.06511 -0.09922,-0.102319 -0.06201,-0.03566 -0.148829,-0.04806 -0.08682,-0.0124 -0.181384,-0.0124 -0.114722,0 -0.255798,0.03101 -0.141077,0.02946 -0.291455,0.08682 h -0.0155 v -0.296106 q 0.08527,-0.02325 0.246496,-0.05116 0.161231,-0.02791 0.31781,-0.02791 0.182935,0 0.317811,0.03101 0.136425,0.02945 0.235644,0.102319 0.09767,0.07131 0.148828,0.184485 0.05116,0.113171 0.05116,0.280603 z m -0.289905,-0.426331 v -0.482141 q -0.133325,0.0078 -0.314709,0.02326 -0.179834,0.0155 -0.285254,0.04496 -0.125574,0.03566 -0.203089,0.111621 -0.07751,0.07441 -0.07751,0.206189 0,0.148828 0.08992,0.224793 0.08992,0.07441 0.274401,0.07441 0.153479,0 0.280604,-0.05891 0.127124,-0.06046 0.235644,-0.144177 z"
         id="path350" />
      <path
         d="m 94.07838,80.005295 h -0.291456 v -0.985987 q 0,-0.119372 -0.01395,-0.223242 -0.01395,-0.10542 -0.05116,-0.164331 -0.03876,-0.06511 -0.111621,-0.09612 -0.07286,-0.03256 -0.189136,-0.03256 -0.119372,0 -0.249597,0.05891 -0.130224,0.05891 -0.249597,0.150378 v 1.292945 h -0.291455 v -1.731677 h 0.291455 v 0.192236 q 0.136426,-0.113171 0.282153,-0.176733 0.145728,-0.06356 0.299207,-0.06356 0.280603,0 0.427881,0.168982 0.147278,0.168982 0.147278,0.486792 z"
         id="path352" />
      <path
         d="M 95.98524,80.005295 H 95.695335 V 79.82081 q -0.03876,0.02636 -0.10542,0.07441 -0.06511,0.04651 -0.127124,0.07441 -0.07286,0.03566 -0.167432,0.05891 -0.09457,0.02481 -0.221691,0.02481 -0.234095,0 -0.396875,-0.155029 -0.162781,-0.15503 -0.162781,-0.395325 0,-0.196887 0.08372,-0.31781 0.08527,-0.122473 0.241845,-0.192236 0.15813,-0.06976 0.379822,-0.09457 0.221692,-0.02481 0.47594,-0.03721 v -0.04496 q 0,-0.09922 -0.03566,-0.164331 -0.03411,-0.06511 -0.09922,-0.102319 -0.06201,-0.03566 -0.148829,-0.04806 -0.08682,-0.0124 -0.181384,-0.0124 -0.114722,0 -0.255798,0.03101 -0.141077,0.02946 -0.291455,0.08682 h -0.0155 v -0.296106 q 0.08527,-0.02325 0.246496,-0.05116 0.161231,-0.02791 0.31781,-0.02791 0.182935,0 0.31781,0.03101 0.136426,0.02945 0.235645,0.102319 0.09767,0.07131 0.148828,0.184485 0.05116,0.113171 0.05116,0.280603 z m -0.289905,-0.426331 v -0.482141 q -0.133325,0.0078 -0.314709,0.02326 -0.179834,0.0155 -0.285254,0.04496 -0.125574,0.03566 -0.203089,0.111621 -0.07751,0.07441 -0.07751,0.206189 0,0.148828 0.08992,0.224793 0.08992,0.07441 0.274401,0.07441 0.153479,0 0.280603,-0.05891 0.127124,-0.06046 0.235645,-0.144177 z"
         id="path354" />
      <path
         d="m 97.78358,79.5061 q 0,0.237195 -0.196888,0.389124 -0.195337,0.151929 -0.534851,0.151929 -0.192236,0 -0.353466,-0.04496 -0.159681,-0.04651 -0.268201,-0.100769 v -0.327112 h 0.0155 q 0.137976,0.10387 0.306958,0.165882 0.168982,0.06046 0.324011,0.06046 0.192236,0 0.300757,-0.06201 0.10852,-0.06201 0.10852,-0.195336 0,-0.10232 -0.05891,-0.15503 -0.05891,-0.05271 -0.226343,-0.08992 -0.06201,-0.01395 -0.16278,-0.03256 -0.09922,-0.0186 -0.181385,-0.04031 -0.227893,-0.06046 -0.324011,-0.176733 -0.09457,-0.117822 -0.09457,-0.288354 0,-0.106971 0.04341,-0.201539 0.04496,-0.09457 0.134875,-0.168981 0.08682,-0.07286 0.220142,-0.114722 0.134875,-0.04341 0.300756,-0.04341 0.15503,0 0.31316,0.03876 0.15968,0.03721 0.2651,0.09147 v 0.311609 h -0.0155 q -0.111621,-0.08217 -0.271301,-0.137976 -0.159681,-0.05736 -0.31316,-0.05736 -0.15968,0 -0.269751,0.06201 -0.11007,0.06046 -0.11007,0.181384 0,0.10697 0.06666,0.161231 0.06511,0.05426 0.21084,0.08837 0.08061,0.0186 0.179834,0.03721 0.100769,0.0186 0.167432,0.03411 0.203088,0.04651 0.313159,0.15968 0.110071,0.114722 0.110071,0.303857 z"
         id="path356" />
      <path
         d="m 98.513767,77.983713 h -0.328662 v -0.302307 h 0.328662 z m -0.0186,2.021582 h -0.291455 v -1.731677 h 0.291455 z"
         id="path358" />
      <path
         d="m 100.54775,79.140231 q 0,0.42323 -0.21704,0.668177 -0.21704,0.244946 -0.581359,0.244946 -0.36742,0 -0.584461,-0.244946 -0.21549,-0.244947 -0.21549,-0.668177 0,-0.42323 0.21549,-0.668176 0.217041,-0.246497 0.584461,-0.246497 0.364319,0 0.581359,0.246497 0.21704,0.244946 0.21704,0.668176 z m -0.30076,0 q 0,-0.336413 -0.13177,-0.499194 -0.131775,-0.164331 -0.365869,-0.164331 -0.237195,0 -0.36897,0.164331 -0.130225,0.162781 -0.130225,0.499194 0,0.325562 0.131775,0.494544 0.131775,0.167431 0.36742,0.167431 0.232544,0 0.364319,-0.165881 0.13332,-0.167432 0.13332,-0.496094 z"
         id="path360" />
      <path
         d="m 102.23602,79.5061 q 0,0.237195 -0.19689,0.389124 -0.19533,0.151929 -0.53485,0.151929 -0.19223,0 -0.35346,-0.04496 -0.15968,-0.04651 -0.2682,-0.100769 v -0.327112 h 0.0155 q 0.13797,0.10387 0.30696,0.165882 0.16898,0.06046 0.32401,0.06046 0.19223,0 0.30075,-0.06201 0.10852,-0.06201 0.10852,-0.195336 0,-0.10232 -0.0589,-0.15503 -0.0589,-0.05271 -0.22634,-0.08992 -0.062,-0.01395 -0.16278,-0.03256 -0.0992,-0.0186 -0.18138,-0.04031 -0.2279,-0.06046 -0.32402,-0.176733 -0.0946,-0.117822 -0.0946,-0.288354 0,-0.106971 0.0434,-0.201539 0.045,-0.09457 0.13488,-0.168981 0.0868,-0.07286 0.22014,-0.114722 0.13488,-0.04341 0.30076,-0.04341 0.15503,0 0.31316,0.03876 0.15968,0.03721 0.2651,0.09147 v 0.311609 h -0.0155 q -0.11163,-0.08217 -0.27131,-0.137976 -0.15968,-0.05736 -0.31316,-0.05736 -0.15968,0 -0.26975,0.06201 -0.11007,0.06046 -0.11007,0.181384 0,0.10697 0.0667,0.161231 0.0651,0.05426 0.21084,0.08837 0.0806,0.0186 0.17983,0.03721 0.10077,0.0186 0.16743,0.03411 0.20309,0.04651 0.31316,0.15968 0.11007,0.114722 0.11007,0.303857 z"
         id="path362" />
      <path
         d="m 105.46993,79.34642 q 0,0.134876 -0.0636,0.266651 -0.062,0.131775 -0.17518,0.223242 -0.12403,0.09922 -0.28991,0.155029 -0.16433,0.05581 -0.39687,0.05581 -0.2496,0 -0.44959,-0.04651 -0.19844,-0.04651 -0.40462,-0.137976 v -0.384473 h 0.0217 q 0.17518,0.145728 0.40463,0.224793 0.22944,0.07906 0.43098,0.07906 0.28525,0 0.44338,-0.106971 0.15968,-0.10697 0.15968,-0.285253 0,-0.15348 -0.076,-0.226343 -0.0744,-0.07286 -0.2279,-0.113172 -0.11627,-0.03101 -0.25269,-0.05116 -0.13488,-0.02015 -0.28681,-0.05116 -0.30696,-0.06511 -0.45578,-0.221692 -0.14728,-0.15813 -0.14728,-0.410828 0,-0.289904 0.24494,-0.474389 0.24495,-0.186035 0.62167,-0.186035 0.2434,0 0.44649,0.04651 0.20308,0.04651 0.35966,0.114722 v 0.362769 h -0.0217 q -0.13177,-0.111621 -0.34727,-0.184485 -0.21394,-0.07441 -0.43873,-0.07441 -0.2465,0 -0.39687,0.102319 -0.14883,0.102319 -0.14883,0.26355 0,0.144177 0.0744,0.226343 0.0744,0.08217 0.262,0.125573 0.0992,0.0217 0.28216,0.05271 0.18293,0.03101 0.31005,0.06356 0.25735,0.06821 0.38758,0.206189 0.13022,0.137976 0.13022,0.386023 z"
         id="path364" />
      <path
         d="m 107.41555,79.140231 q 0,0.42323 -0.21704,0.668177 -0.21704,0.244946 -0.58136,0.244946 -0.36742,0 -0.58446,-0.244946 -0.21549,-0.244947 -0.21549,-0.668177 0,-0.42323 0.21549,-0.668176 0.21704,-0.246497 0.58446,-0.246497 0.36432,0 0.58136,0.246497 0.21704,0.244946 0.21704,0.668176 z m -0.30076,0 q 0,-0.336413 -0.13177,-0.499194 -0.13178,-0.164331 -0.36587,-0.164331 -0.2372,0 -0.36897,0.164331 -0.13023,0.162781 -0.13023,0.499194 0,0.325562 0.13178,0.494544 0.13177,0.167431 0.36742,0.167431 0.23254,0 0.36432,-0.165881 0.13332,-0.167432 0.13332,-0.496094 z"
         id="path366" />
      <path
         d="m 109.30226,80.005295 h -0.29146 v -0.192237 q -0.14728,0.116272 -0.28215,0.178284 -0.13488,0.06201 -0.29766,0.06201 -0.27285,0 -0.42478,-0.165881 -0.15193,-0.167432 -0.15193,-0.489893 v -1.123962 h 0.29146 v 0.985986 q 0,0.131775 0.0124,0.226343 0.0124,0.09302 0.0527,0.15968 0.0419,0.06821 0.10852,0.09922 0.0667,0.03101 0.19379,0.03101 0.11317,0 0.24649,-0.05891 0.13488,-0.05891 0.25115,-0.150378 v -1.292944 h 0.29146 z"
         id="path368" />
      <path
         d="m 110.17042,80.005295 h -0.29146 v -2.412256 h 0.29146 z"
         id="path370" />
      <path
         d="m 111.06029,77.983713 h -0.32866 v -0.302307 h 0.32866 z m -0.0186,2.021582 h -0.29146 v -1.731677 h 0.29146 z"
         id="path372" />
      <path
         d="m 112.85553,79.5061 q 0,0.237195 -0.19689,0.389124 -0.19534,0.151929 -0.53485,0.151929 -0.19224,0 -0.35347,-0.04496 -0.15968,-0.04651 -0.2682,-0.100769 v -0.327112 h 0.0155 q 0.13798,0.10387 0.30696,0.165882 0.16898,0.06046 0.32401,0.06046 0.19224,0 0.30076,-0.06201 0.10852,-0.06201 0.10852,-0.195336 0,-0.10232 -0.0589,-0.15503 -0.0589,-0.05271 -0.22634,-0.08992 -0.062,-0.01395 -0.16278,-0.03256 -0.0992,-0.0186 -0.18139,-0.04031 -0.22789,-0.06046 -0.32401,-0.176733 -0.0946,-0.117822 -0.0946,-0.288354 0,-0.106971 0.0434,-0.201539 0.045,-0.09457 0.13488,-0.168981 0.0868,-0.07286 0.22014,-0.114722 0.13487,-0.04341 0.30075,-0.04341 0.15503,0 0.31316,0.03876 0.15968,0.03721 0.2651,0.09147 v 0.311609 h -0.0155 q -0.11162,-0.08217 -0.2713,-0.137976 -0.15968,-0.05736 -0.31316,-0.05736 -0.15968,0 -0.26975,0.06201 -0.11007,0.06046 -0.11007,0.181384 0,0.10697 0.0667,0.161231 0.0651,0.05426 0.21084,0.08837 0.0806,0.0186 0.17984,0.03721 0.10076,0.0186 0.16743,0.03411 0.20309,0.04651 0.31316,0.15968 0.11007,0.114722 0.11007,0.303857 z"
         id="path374" />
    </g>
  </g>
</svg>
